<svg xmlns="http://www.w3.org/2000/svg" id="icon_linkedin" width="20.001" height="19.955" viewBox="0 0 20.001 19.955">
  <g id="linkedin_6_" data-name="linkedin (6)" transform="translate(-68.847 -69.215)">
    <g id="Group_10" data-name="Group 10" transform="translate(68.847 69.215)">
      <path id="Path_3" data-name="Path 3" d="M71.262,69.215a2.4,2.4,0,1,1-2.415,2.4A2.409,2.409,0,0,1,71.262,69.215Z" transform="translate(-68.847 -69.215)"/>
      <path id="Path_4" data-name="Path 4" d="M77.674,187.991H74.862a.661.661,0,0,1-.661-.661v-12a.661.661,0,0,1,.661-.661h2.812a.661.661,0,0,1,.661.661v12A.661.661,0,0,1,77.674,187.991Z" transform="translate(-73.864 -168.039)"/>
      <path id="Path_5" data-name="Path 5" d="M194.428,173.816a4.554,4.554,0,0,0-4.554-4.554h-.721a4.051,4.051,0,0,0-3.545,2.092l-.038,0v-1.473a.274.274,0,0,0-.274-.274h-3.509a.274.274,0,0,0-.274.274v12.771a.274.274,0,0,0,.274.274h3.585a.274.274,0,0,0,.274-.274V175.27a2.339,2.339,0,0,1,2.293-2.349,2.319,2.319,0,0,1,2.346,2.319v7.409a.274.274,0,0,0,.274.274h3.594a.274.274,0,0,0,.274-.274v-8.834Z" transform="translate(-174.427 -162.97)"/>
    </g>
  </g>
</svg>
